<svg xmlns="http://www.w3.org/2000/svg" viewBox="0 0 19.8 19.9"><path d="M10.1.2a9.9 9.9 0 0 0-9.9 9.9v.2c0 4.3 2.8 8.1 6.9 9.4.2.1.5 0 .6-.2v-2c-2.7.6-3.3-1.4-3.3-1.4-.2-.6-.6-1.1-1.1-1.4-.9-.6.1-.6.1-.6.6.1 1.2.5 1.6 1a2 2 0 0 0 2.8.8c0-.5.3-1 .6-1.4-2.2-.3-4.6-1.1-4.6-4.9 0-1 .4-2 1-2.7a3 3 0 0 1 0-2.6s.8-.3 2.6 1c1.6-.5 3.4-.5 5 0 1.9-1.3 2.6-1 2.6-1 .3.8.4 1.8.1 2.6.7.7 1.1 1.7 1 2.7 0 3.7-2.4 4.8-4.6 4.9.4.5.7 1.1.7 1.8V19c0 .3.2.5.5.5h.2a10 10 0 0 0 6.2-12.6 9.3 9.3 0 0 0-9-6.7z" fill="#8c271e"/></svg>