<svg data-name="Layer 1" xmlns="http://www.w3.org/2000/svg" viewBox="0 0 20.1 16.2"><path d="M17.6 2.6A3.5 3.5 0 0 0 19.4.3a11.4 11.4 0 0 1-2.6.9 3.9 3.9 0 0 0-3-1.2 4 4 0 0 0-2.9 1.2 4 4 0 0 0-1.2 2.9 2.8 2.8 0 0 0 .1.9A11.1 11.1 0 0 1 1.4.7a4.2 4.2 0 0 0-.6 2.1 4.4 4.4 0 0 0 1.8 3.5 3.2 3.2 0 0 1-1.8-.6 3.9 3.9 0 0 0 .9 2.6 4.2 4.2 0 0 0 2.4 1.4 2.2 2.2 0 0 1-1.1.2h-.7a3.3 3.3 0 0 0 1.5 2 3.6 3.6 0 0 0 2.4.9 7.7 7.7 0 0 1-5.1 1.7H0a11.8 11.8 0 0 0 6.3 1.8 11.8 11.8 0 0 0 6.3-1.8 11.3 11.3 0 0 0 4-4.4 13 13 0 0 0 1.3-5.4V4a6.3 6.3 0 0 0 2.2-2.1 7.2 7.2 0 0 1-2.5.7z" fill="#8c271e"/></svg>