<svg data-name="Layer 2" xmlns="http://www.w3.org/2000/svg" width="8.1in" height="8.7in" viewBox="0 0 582.2 623.3"><path d="M200.7 4.8a24.2 24.2 0 0 0 3.2 2l1 .6.4 2.5c.4 3.7-2 6.3-3.7 8.2l-1.1 1.5-1.2 1c-2.3 2.1-5.5 4.9-5.4 8.7a6.3 6.3 0 0 0 2.5 5c1.3 1.1 1.4 1.2-.1 3.5-.2.4-.6.7-1.4 1.2a16 16 0 0 0-6.2 8.7c-.3 1.1-1.4 4.4.5 6.9a5.2 5.2 0 0 0 4.5 2.2c2.7 0 6.3-1.6 12.4-5.5a69.2 69.2 0 0 0 6.2-4.4l2.6-1.8c8.1 9 12.7 10.3 17.1 11 1.3.2 1.6.2 2 .6 2.9 2.3 7.2 3.9 11.1 5.2a39 39 0 0 1 5.3 2.2 12.2 12.2 0 0 0 5.1 2 6.6 6.6 0 0 1 4.3 2.3c3 3.6 6 11.2 7.2 16.7 1.7 7.2 11.2 9 13.4 9.3 4.1 1.1 53.4 14.8 71.1 19.1s19.9 5.5 29.4 10.5l1.2.6a71.3 71.3 0 0 0 25.7 9.5c.9 0 .9 0 1.5 1a7.2 7.2 0 0 0 6.9 4.5h1.1c4.1-.3 6.8-3 8.8-5l.4-.4c2.2 2.2 3.4 3.1 7.4 4.9a10 10 0 0 0 3.9.9 6.9 6.9 0 0 0 3.6-1.1 18.2 18.2 0 0 1 2.9 1.6c2.6 1.6 6.2 3.9 11.3 4.2 2.5.1 7.7.4 8.7 1.3a8.3 8.3 0 0 0 3 4.7h-.1l-.7.4c-1.4.6-5.1 2.1-4.4 7.2s6.7 8.9 11.9 8.9h1.6a7.8 7.8 0 0 0 2.3-.8c2 3.4 5.4 3.8 7.9 3.8h3.4a13.3 13.3 0 0 1 1 1.1 17.4 17.4 0 0 0 3 3.4l.7.5 1.1.9c-2.8 3.8-.3 7.4 1 9.1a14 14 0 0 1 1.6 2.9h-.1c-.9 1.3-2.7 3.7-1.8 8.6a12.4 12.4 0 0 1-1.3 8.6h-.1c-1.8 1.3-3.5 3.1-3.4 7.7 0 .5 0 .5-.5 1.2a8.6 8.6 0 0 0-1.2 8.3c.5 1.7 2.5 5.6 9.2 5.6 3.5 0 9.4-1.3 11.4-4.2l.6-.9.8-1.2a10.8 10.8 0 0 1-.6 3.5 31 31 0 0 1-2.4 5.4 69.7 69.7 0 0 0-3.8 8.4c-2.1 5.8-.9 8.4 2.1 11.1a16 16 0 0 1 2.1 2.3c2.7 4.2 5.5 6.2 8.2 7.3a12 12 0 0 0-.9 3.5c-.1 3-1 6.7-2.4 8s-3.4.8-5.1 1a28.9 28.9 0 0 0-8.5 1.9c-6.5 2.7-5.4 7.4-4.9 9.7a11.3 11.3 0 0 1 .3 2.5c-.1.8-1.1 1.9-2.3 3.1s-3.5 3.7-4.4 6.6a23.7 23.7 0 0 1-2.7 5.2 45.4 45.4 0 0 0-5.7 12.3 33 33 0 0 0-1.2 9.4c-.1 2.4-.2 3.7-.9 5.2s-2.4 5.2-1.2 8.1 4.6 4.5 7.7 5.6a13.9 13.9 0 0 0 3.3.5c5.9 0 7.7-5.5 8.6-8.4l.8-2.2.2-.2c1.6-2.6 2.3-3.8 7-5.7 6.9-2.9 8.2-6.1 9.9-11.2l.3-1a27.4 27.4 0 0 1 3.2-6.4c.9-1.4 1.9-3 3.1-5.3 2.2-3.9 3.6-5.8 4.2-5.8h2.8c2.7 0 5.2-1.1 8-3.5l1.8-1.6 2.7 4.8a4 4 0 0 0 3.4 2l1-.2a3.9 3.9 0 0 0 3-3.8l.3-5.4a24.3 24.3 0 0 0-.3-4.9 17.6 17.6 0 0 1 .3-7.8c.8-3.3 3.4-7.3 5.7-10.8a39.9 39.9 0 0 0 4.7-8.2l.8-2.7a20.2 20.2 0 0 1 1.1-2.9h.2c4.9-1.1 10.3-7.8 11.3-10.9l.3-.9a11.3 11.3 0 0 1 .8-2.4 6.8 6.8 0 0 0 3.3-3.5l.5-.9 1.2-.3a14.9 14.9 0 0 1 0 3c-5.5.4-6 6.8-6.3 11.1s-2.4 8-4.7 11.8l-1.6 2.6c-3 5-7 11.8-6 18.7.4 3.1-4.1 6.9-5.8 8.4h-.1c-3.2 2.7-7.1 10-7.9 16.6s-5.7 13.7-9.4 19.4c-5.3 8.1-5.6 13.9-6.1 22.5l-.2 3.5a39.3 39.3 0 0 1-1.8 9.3c-1.2 4.7-2.4 9.2.4 14.6s2.5 8.9-1.1 12.7l-3.3 3a20.3 20.3 0 0 0-7.7 12.4l-2 6.7a87.8 87.8 0 0 0-5.2 24.4 38.1 38.1 0 0 0 2.1 9c1.7 4.9 3.1 9.1.6 14.4a65 65 0 0 0-7.8 24.3c-.1 2.7-2.6 9.4-4.7 15.3a121.9 121.9 0 0 0-4.9 14.9c-1.4 6.1-.7 12-.2 16.3a29.9 29.9 0 0 1 .2 3.8c-.8 3 .7 5.8 1.9 8.1a21 21 0 0 1 1.3 2.6 6 6 0 0 1-.8.8c-1.2 1.3-3.1 3.2-2.9 6.1a7.7 7.7 0 0 0 3 5.4c4 3.5 4.2 5.1 4.1 7.6-.2 5.1 0 12.4 4.6 17l2 1.9a12 12 0 0 1 1.6 1.5l-.2.4a57 57 0 0 0-3.7 21.3c-.1 5.5.3 11.5.6 15.4H220.7a44.5 44.5 0 0 0-3.2-8l-2-4.1c-2.1-4.7-9.6-7.7-21.7-12.1-5-1.7-10.1-3.5-12.6-5-4.9-3-6-11.3-6.7-16.3a22.3 22.3 0 0 1-.4-2.3 8.9 8.9 0 0 0-5-6.8c.1-3-.4-6.2-1.2-11.2l-.6-3.6a30 30 0 0 1 2.6-17.4 17.4 17.4 0 0 1 4.5-6.4c1.7-1.9 3.6-3.9 4.2-6.8s-.2-5.4-2.3-8.4-5.9-6.5-10.4-7.2a6.7 6.7 0 0 1-2.5-1c1.4-2.5 1.2-4.9.8-8.6-.1-1.9-.4-4.3-.5-7.6a42 42 0 0 0-2.9-13.4 32.4 32.4 0 0 1-2.2-8.3 36.4 36.4 0 0 1 .3-7.4c.6-4.9 1.2-11-1.5-22.2-4.7-19-21.9-27-28.1-28.4-2.9-.7-5.4-2.8-10.6-7.5-3.2-2.8-7.1-6.3-12.5-10.6s-8.3-9.8-10-14.9-3.4-10.4-9.8-16.3-13.4-7.9-19-9.4-8.3-2.4-9.5-5.5c-4.6-11-8.2-13.7-19.4-14.3-7.5-.4-12.6-4.5-14.1-8.2a54.5 54.5 0 0 0-16.9-16.8h-.1c2-3.5 3.1-7.4 4.1-14.7.7-5.2 1-11.3 1.3-15.7l.3-4.8a6.3 6.3 0 0 0-3-6.4l.4-.2c5.3-2.8 4.4-9.8 3.7-16.1l-.4-3.3c-.5-6.1 0-9.9.5-11l.9-.5c1.9-1.1 5.4-2.9 5.8-7.7.1-1.3.5-1.8 1.7-3a15.3 15.3 0 0 0 2.4-2.9c3.1-5 .2-11.3-.7-13.1a12.9 12.9 0 0 0-3-3.4c-1.4-1.1-2-1.7-2.1-3.4-.2-5.9-4.6-9.8-11.2-9.8H5.6a2.8 2.8 0 0 1-1.5-.6c.3-3.4.9-10.7 1.8-15.1l.1-.4.6-.2c3.5-1.3 7.2-3.3 9.9-12.5 3.7-12.6 16-16.1 16.6-16.3 3.4-.9 4.3-4 4.6-5.4a4.3 4.3 0 0 1 1.7.4 8.7 8.7 0 0 0 2.5.4c2.4 0 4.2-1.4 5.3-4.2l.8-1.8a8.2 8.2 0 0 0 3.7 1c2.9 0 6.3-1.9 7.2-7.2h1a3.6 3.6 0 0 0 2.4-.9 4 4 0 0 0 1.4-2.9L66.5 43c4.4-.7 11.1-2.7 13.2-9a7.7 7.7 0 0 1 .6-1.5 23.4 23.4 0 0 1 2.8 2.8c3.3 3.6 8.2 5.4 14.4 5.4s11.9-1.5 16.8-2.8a65.4 65.4 0 0 0 12.3-4.4 30.1 30.1 0 0 1 6.8-2.4 53.2 53.2 0 0 1 6.1-.8c5.5-.5 11.7-1 15.9-5.7a8.9 8.9 0 0 1 5.6-3.1 9.3 9.3 0 0 0 4.5-1.9 14.3 14.3 0 0 0 2.2-2.6 8.4 8.4 0 0 0 5.3 1.9 9.9 9.9 0 0 0 5.8-2 10.1 10.1 0 0 1 2.6-1.5 28.5 28.5 0 0 0 7.1-4.8l1.4-1.2 1.5-1.3h.2l3.2-.2a8.6 8.6 0 0 0 5.9-3.1m-.5-4.8c-1.9 0-1.8 3.5-5.9 3.9s-3.1-.8-8.4 3.7-6.1 3.6-9.5 6.1a5.4 5.4 0 0 1-3.4 1.2 4.6 4.6 0 0 1-4.3-3.3c-.2-.6-.5-.9-.8-.9s-3.5 4.5-5 5.9-6 .3-10.5 5.3-12.9 3.8-19.9 5.3-8 3.9-19.2 6.9c-5.7 1.5-11.1 2.6-15.8 2.6s-8.7-1.1-11.5-4.1-4.8-4.8-6.3-4.8-2.7 1.6-3.8 4.9c-2.2 6.6-13.2 6.6-13.2 6.6l-3 82h-.3a4.3 4.3 0 0 0-4.4 3.5c-.4 2.6-1.7 3.9-3.3 3.9a5 5 0 0 1-2.7-1.1 3.2 3.2 0 0 0-1.7-.6c-1.7 0-2.8 2.4-3.8 5s-1 1.7-1.6 1.7-2.3-.9-4.9-.9c-4.3 0-2 4.8-5 5.7s-15.3 5.5-19.3 19-9.4 7.1-10.7 13.3-2 17.5-2 17.5 2.2 3.1 5.6 3.1h2.5c3.4 0 7.1 1.4 7.2 5.9s4.2 6 5.5 8.5 2.5 6.5.9 9.2-4.4 3.5-4.7 7.7-5 4.1-6.2 6.3-1.5 7.7-1 13.5 2.4 13.7-1.1 15.5-3.5 3.8-3.2 5.5 4 .8 3.7 4.3-.7 12.7-1.7 20.2-2 10.8-4 14 .8 4.3 2.5 5 12.7 9.8 14.7 14.6 8.1 10.2 17.6 10.7 11.9 2.2 15.9 11.8 17.5 5.4 29.5 16.4 5.5 19.8 20 31.3 18.3 17.3 24.6 18.8 21.2 9.2 25.2 25.5.3 20.5 1.2 29 4.5 11.4 5 21.5 1.6 12.2 0 14.5 1.1 5.9 5.6 6.5 10.2 7 9.4 10.9-5.9 5.8-8.5 12.5-4 12-2.9 19.5 2 11.5 1.7 14.8 4.3 2 5.2 6.8 1.5 16.9 9 21.4 30.1 9.6 32.6 15.3 5.4 9.8 5.5 14.5h293.2a168.1 168.1 0 0 1-1-19.3c.2-8.9 1.5-15.9 3.3-19.7s-.6-4.8-4.1-8.3-3.7-9.9-3.5-14-.9-6.9-5.5-10.9 2.3-5.6 2.1-9-4.1-7.1-3.3-9.8-2-11.5 0-20.3 9.5-25 9.7-31 2.6-12.4 7.5-22.7-2-17.7-2.4-25.3 4.5-20.9 7-29.9 5-8.5 10-13.6 5.4-10.7 1.9-17.4 1.1-11.3 1.8-21.8.3-15.8 5.7-24 9.3-15.5 10-21.2 4.1-12 6.5-14 8-6.7 7.2-12 2.6-11.3 5.5-16.2 6.4-9.1 6.9-16.1 1.1-7.4 2.8-7.4a3.2 3.2 0 0 1 1.3.2h.4c2.3 0 1.9-7 1.7-9.8s-.7-1.8-1.7-1.8a22.3 22.3 0 0 0-4.3.8c-3.2.8-3 4.3-4.7 4.6s-2.5 3.8-3.1 5.8-5.2 7.5-8.4 8.2-3.4 3.5-5 8.3-8.9 12.5-10.5 19.4.1 9.1-.1 13.3l-.3 5.7-3.5-6.5c-.4-1-.9-1.5-1.6-1.5s-2.6 1.4-5.4 3.7-4 2.6-5.4 2.6l-2.6-.2h-.4c-2.5.1-4.1 1.7-7.5 7.9s-5 7.5-6.6 12.3-2 7.3-8 9.8-7.1 4.5-9 7.5-1.7 8.7-6 8.7l-2-.3c-6.2-2.2-6.5-3.7-4.2-8.2s.3-7.7 2.3-15.2 7-12.9 8.4-17.3 6.6-6.5 6.9-10.7-2.9-6.6 2.1-8.8 11.9-1 14.8-3.6 3.6-8.2 3.7-10.7 3.1-5.9.5-6.7-5.5-1.8-8.5-6.5-6.1-3.3-3.7-9.8 5-9.8 6.2-14 1.4-7.7-1.9-8.8a3 3 0 0 0-1.3-.2c-2.3 0-3.5 2.4-4.7 4.1s-4.7 2.5-8.1 2.5-4.7-.7-5.4-2.8c-1.5-4.8 2-4.2 1.9-8.5s1.6-3.7 2.6-5.1a16.3 16.3 0 0 0 2.2-11.9c-1.2-6 3.1-5 1.7-9.2s-5.4-6.1-2.9-8.9 0-4.2-2.8-6.5-3-5.4-6.8-5.4h-3.1c-2.7 0-4.3-.5-5.1-3.3-.4-1.2-.9-1.6-1.4-1.6s-2.5 1.6-4.4 2h-.9c-3 0-7.5-1.8-8-5.4s3.8-1.9 5.2-6.1-2.2-3-3-6.7-5.9-4-12.4-4.3-10-4.8-13.5-5.7h-1.2c-1.6 0-1.9 1.1-3.3 1.1a4.9 4.9 0 0 1-2.3-.6 18.1 18.1 0 0 1-7.5-5.4 1.8 1.8 0 0 0-1.3-.6c-2.5 0-5.1 5.8-9.8 6.3h-.7c-4.6 0-2.2-5.1-8-5.5s-13.5-3.4-24.3-9-13-7-31.5-11.5-71.2-19.2-71.2-19.2-9.1-1-10.3-6.2-4.2-13.9-8.1-18.4-7.1-2.9-10.1-5-12-3.9-16.2-7.2-7.1 2.1-19.7-12.4a1.6 1.6 0 0 0-1.3-.7c-2.1 0-5.5 3.5-11.6 7.4-4.4 2.8-8.2 4.9-10.2 4.9s-2.1-1.1-1.2-3.9c2.2-6.5 5.3-6.1 7.2-9s3-5.6-.8-8.7 3.5-7.5 4.8-9.3 6.2-5.8 5.6-12.3-2.1-4.8-6.8-8.4a4.1 4.1 0 0 0-2.3-1.2z" fill="#275dad"/></svg>